<svg width="1904" height="1080" viewBox="0 0 1904 1080" fill="none" xmlns="http://www.w3.org/2000/svg">
<ellipse cx="81.5" cy="552.5" rx="253.5" ry="614.5" fill="#00873E"/>
<path d="M278.5 545.5C278.5 706.763 252.273 852.69 209.924 958.245C188.748 1011.03 163.571 1053.64 135.69 1083.03C107.812 1112.43 77.334 1128.5 45.5 1128.5C13.666 1128.5 -16.8118 1112.43 -44.6897 1083.03C-72.5708 1053.64 -97.7484 1011.03 -118.924 958.245C-161.273 852.69 -187.5 706.763 -187.5 545.5C-187.5 384.237 -161.273 238.31 -118.924 132.755C-97.7484 79.9726 -72.5708 37.359 -44.6897 7.96519C-16.8118 -21.4252 13.666 -37.5 45.5 -37.5C77.334 -37.5 107.812 -21.4252 135.69 7.96519C163.571 37.359 188.748 79.9726 209.924 132.755C252.273 238.31 278.5 384.237 278.5 545.5Z" stroke="#E2F2E7" stroke-width="3"/>
<circle cx="1438" cy="222" r="175" fill="#00873E" fill-opacity="0.05"/>
<circle cx="1804" cy="534" r="100" fill="#00873E" fill-opacity="0.05"/>
</svg>
