<svg width="70" height="70" viewBox="0 0 70 70" fill="none" xmlns="http://www.w3.org/2000/svg">
<circle cx="35" cy="35" r="35" fill="#E2F2E7"/>
<path d="M36.2955 48.2727C35.0739 48.2727 34.017 47.9886 33.125 47.4205C32.233 46.8466 31.5426 46.054 31.054 45.0426C30.571 44.0256 30.3295 42.8551 30.3295 41.5312C30.3295 40.2131 30.571 39.0426 31.054 38.0199C31.5426 36.9915 32.2159 36.1875 33.0739 35.608C33.9375 35.0227 34.9347 34.7301 36.0653 34.7301C36.7756 34.7301 37.4602 34.8608 38.1193 35.1222C38.7784 35.3778 39.3693 35.7727 39.892 36.3068C40.4205 36.8352 40.8381 37.5028 41.1449 38.3097C41.4517 39.1108 41.6051 40.0597 41.6051 41.1562V41.9062H31.3778V40.5682H40.054C40.054 39.7273 39.8835 38.9716 39.5426 38.3011C39.2074 37.625 38.7386 37.0909 38.1364 36.6989C37.5398 36.3068 36.8494 36.1108 36.0653 36.1108C35.2358 36.1108 34.5057 36.3324 33.875 36.7756C33.2443 37.2187 32.75 37.804 32.392 38.5312C32.0398 39.2585 31.8608 40.054 31.8551 40.9176V41.7188C31.8551 42.7585 32.0341 43.6676 32.392 44.446C32.7557 45.2187 33.2699 45.8182 33.9347 46.2443C34.5994 46.6705 35.3864 46.8835 36.2955 46.8835C36.9148 46.8835 37.4574 46.7869 37.9233 46.5938C38.3949 46.4006 38.7898 46.142 39.108 45.8182C39.4318 45.4886 39.6761 45.1278 39.8409 44.7358L41.2812 45.2045C41.0824 45.7557 40.7557 46.2642 40.3011 46.7301C39.8523 47.196 39.2898 47.571 38.6136 47.8551C37.9432 48.1335 37.1705 48.2727 36.2955 48.2727ZM48.6044 48.2983C47.8146 48.2983 47.093 48.1449 46.4396 47.8381C45.7862 47.5256 45.2663 47.0767 44.88 46.4915C44.4936 45.9006 44.3004 45.1847 44.3004 44.3438C44.3004 43.696 44.4226 43.1506 44.6669 42.7074C44.9112 42.2642 45.2578 41.9006 45.7067 41.6165C46.1555 41.3324 46.6868 41.108 47.3004 40.9432C47.9141 40.7784 48.5902 40.6506 49.3288 40.5597C50.0618 40.4687 50.6811 40.3892 51.1868 40.321C51.6982 40.2528 52.0874 40.1449 52.3544 39.9972C52.6214 39.8494 52.755 39.6108 52.755 39.2812V38.9744C52.755 38.0824 52.4879 37.3807 51.9538 36.8693C51.4254 36.3523 50.6641 36.0938 49.6697 36.0938C48.7266 36.0938 47.9567 36.3011 47.3601 36.7159C46.7692 37.1307 46.3544 37.6193 46.1158 38.1818L44.6754 37.6619C44.9709 36.946 45.38 36.375 45.9027 35.9489C46.4254 35.517 47.0107 35.2074 47.6584 35.0199C48.3061 34.8267 48.9624 34.7301 49.6271 34.7301C50.1271 34.7301 50.647 34.7955 51.1868 34.9261C51.7322 35.0568 52.2379 35.2841 52.7038 35.608C53.1697 35.9261 53.5476 36.3722 53.8374 36.946C54.1271 37.5142 54.272 38.2358 54.272 39.1108V48H52.755V45.929H52.6612C52.4794 46.3153 52.2095 46.6903 51.8516 47.054C51.4936 47.4176 51.0447 47.7159 50.505 47.9489C49.9652 48.1818 49.3317 48.2983 48.6044 48.2983ZM48.8089 46.9091C49.6158 46.9091 50.3146 46.7301 50.9055 46.3722C51.4964 46.0142 51.951 45.5398 52.2692 44.9489C52.593 44.3523 52.755 43.696 52.755 42.9801V41.0881C52.6413 41.196 52.451 41.2926 52.1839 41.3778C51.9226 41.4631 51.6186 41.5398 51.272 41.608C50.9311 41.6705 50.5902 41.7244 50.2493 41.7699C49.9084 41.8153 49.6016 41.8551 49.3288 41.8892C48.5902 41.9801 47.9595 42.1222 47.4368 42.3153C46.9141 42.5085 46.5135 42.7756 46.2351 43.1165C45.9567 43.4517 45.8175 43.8835 45.8175 44.4119C45.8175 45.2074 46.1016 45.8239 46.6697 46.2614C47.2379 46.6932 47.951 46.9091 48.8089 46.9091ZM59.8246 30.5455V48H58.3075V30.5455H59.8246Z" fill="#020202"/>
<path d="M27 48V20" stroke="#020202" stroke-width="2"/>
<path d="M13 48L13 20" stroke="#020202" stroke-width="2"/>
<line x1="14" y1="34" x2="26" y2="34" stroke="#00873E" stroke-width="2"/>
<line x1="20" y1="29" x2="20" y2="39" stroke="#00873E" stroke-width="2"/>
</svg>
